<svg width="43" height="43" viewBox="0 0 43 43" fill="none" xmlns="http://www.w3.org/2000/svg">
<path d="M29.8 17.24C30.8587 15.914 31.5626 14.3403 31.8454 12.6672C32.1281 10.9941 31.9805 9.2765 31.4164 7.67616C30.8523 6.07582 29.8902 4.64535 28.6208 3.5194C27.3513 2.39344 25.8162 1.60903 24.16 1.24001C23.4493 1.0914 22.726 1.01104 22 1.00001C20.248 1.00356 18.5278 1.4673 17.0115 2.34481C15.4951 3.22232 14.2359 4.48278 13.36 6.00001L30.76 23.36C30.5518 23.0719 30.3246 22.7979 30.08 22.54C29.3935 21.8435 28.9859 20.9197 28.9343 19.9431C28.8828 18.9666 29.1907 18.0049 29.8 17.24ZM24 11C23.6044 11 23.2177 10.8827 22.8888 10.6629C22.5599 10.4432 22.3036 10.1308 22.1522 9.76537C22.0008 9.39992 21.9612 8.99779 22.0384 8.60983C22.1156 8.22186 22.3061 7.8655 22.5858 7.58579C22.8655 7.30609 23.2218 7.11561 23.6098 7.03844C23.9978 6.96127 24.3999 7.00087 24.7653 7.15225C25.1308 7.30362 25.4431 7.55997 25.6629 7.88887C25.8827 8.21776 26 8.60444 26 9.00001C26 9.53044 25.7893 10.0391 25.4142 10.4142C25.0391 10.7893 24.5304 11 24 11ZM12 9.78001L2.77997 0.460007L0.219971 3.00001L13.6 16.38C13.8 16.68 14 17 14.22 17.24C14.8097 17.9905 15.1117 18.9271 15.0714 19.8807C15.031 20.8343 14.651 21.742 14 22.44C12.6625 23.8541 11.7241 25.5978 11.2808 27.4931C10.8374 29.3883 10.9049 31.3673 11.4763 33.228C12.0477 35.0887 13.1026 36.7644 14.5333 38.0841C15.964 39.4039 17.7193 40.3204 19.62 40.74C20.4012 40.9146 21.1995 41.0018 22 41C24.0914 41.0122 26.1429 40.4279 27.9141 39.3156C29.6852 38.2033 31.1026 36.6092 32 34.72L39.74 42.46L42.28 39.92M20 33C19.6044 33 19.2177 32.8827 18.8888 32.6629C18.5599 32.4432 18.3036 32.1308 18.1522 31.7654C18.0008 31.3999 17.9612 30.9978 18.0384 30.6098C18.1156 30.2219 18.3061 29.8655 18.5858 29.5858C18.8655 29.3061 19.2218 29.1156 19.6098 29.0384C19.9978 28.9613 20.3999 29.0009 20.7653 29.1522C21.1308 29.3036 21.4431 29.56 21.6629 29.8889C21.8827 30.2178 22 30.6044 22 31C22 31.5304 21.7893 32.0391 21.4142 32.4142C21.0391 32.7893 20.5304 33 20 33ZM26 35C25.6044 35 25.2177 34.8827 24.8888 34.6629C24.5599 34.4432 24.3036 34.1308 24.1522 33.7654C24.0008 33.3999 23.9612 32.9978 24.0384 32.6098C24.1156 32.2219 24.3061 31.8655 24.5858 31.5858C24.8655 31.3061 25.2218 31.1156 25.6098 31.0384C25.9978 30.9613 26.3999 31.0009 26.7653 31.1522C27.1308 31.3036 27.4431 31.56 27.6629 31.8889C27.8827 32.2178 28 32.6044 28 33C28 33.5304 27.7893 34.0391 27.4142 34.4142C27.0391 34.7893 26.5304 35 26 35ZM24 29C23.4695 29 22.9608 28.7893 22.5858 28.4142C22.2107 28.0391 22 27.5304 22 27C22 26.7111 22.0625 26.4257 22.1834 26.1633C22.3042 25.9009 22.4804 25.6678 22.7 25.48L25.52 28.3C25.3322 28.5195 25.0991 28.6958 24.8367 28.8166C24.5743 28.9375 24.2889 29 24 29Z" fill="#14AE5C"/>
</svg>
