<svg width="30" height="41" viewBox="0 0 30 41" fill="none" xmlns="http://www.w3.org/2000/svg">
<path fill-rule="evenodd" clip-rule="evenodd" d="M18.6667 4.375V4.89458C23.9687 6.43541 27.8333 11.2353 27.8333 16.9167V29.4583H29.6667V33.0417H0.333328V29.4583H2.16666V16.9167C2.16595 14.2153 3.05779 11.5858 4.70945 9.41966C6.36112 7.2535 8.68432 5.66641 11.3333 4.89458V4.375C11.3333 3.42464 11.7196 2.5132 12.4073 1.8412C13.0949 1.16919 14.0275 0.791664 15 0.791664C15.9725 0.791664 16.9051 1.16919 17.5927 1.8412C18.2804 2.5132 18.6667 3.42464 18.6667 4.375ZM5.83333 29.4583H24.1667V16.9167C24.1667 14.5408 23.2009 12.2622 21.4818 10.5822C19.7627 8.90215 17.4311 7.95833 15 7.95833C12.5688 7.95833 10.2373 8.90215 8.51818 10.5822C6.7991 12.2622 5.83333 14.5408 5.83333 16.9167V29.4583ZM18.6667 36.625V34.8333H11.3333V36.625C11.3333 37.5754 11.7196 38.4868 12.4073 39.1588C13.0949 39.8308 14.0275 40.2083 15 40.2083C15.9725 40.2083 16.9051 39.8308 17.5927 39.1588C18.2804 38.4868 18.6667 37.5754 18.6667 36.625Z" fill="#14AE5C"/>
</svg>
