<svg width="40" height="39" viewBox="0 0 40 39" fill="none" xmlns="http://www.w3.org/2000/svg">
<mask id="mask0_1013_223" style="mask-type:luminance" maskUnits="userSpaceOnUse" x="0" y="0" width="40" height="39">
<path d="M18.9584 37.125H4.37502C3.82249 37.125 3.29258 36.9187 2.90188 36.5514C2.51118 36.1842 2.29169 35.686 2.29169 35.1667V3.83333C2.29169 3.31395 2.51118 2.81584 2.90188 2.44858C3.29258 2.08132 3.82249 1.875 4.37502 1.875H33.5417C34.0942 1.875 34.6241 2.08132 35.0148 2.44858C35.4055 2.81584 35.625 3.31395 35.625 3.83333V15.0938" stroke="white" stroke-width="2.66667" stroke-linecap="round" stroke-linejoin="round"/>
<path d="M33.1625 22.4375C35.6729 22.4375 37.7084 24.2783 37.7084 26.55C37.7084 29.5071 34.6771 32.0333 33.1625 33.4042C32.1528 34.3181 30.8903 35.2319 29.375 36.1458C27.8597 35.2319 26.5972 34.3181 25.5875 33.4042C24.0719 32.0333 21.0417 29.5071 21.0417 26.55C21.0417 24.2783 23.0771 22.4375 25.5875 22.4375C27.1677 22.4375 28.5604 23.168 29.375 24.2764C29.8006 23.7044 30.3677 23.2382 31.0275 22.9178C31.6873 22.5975 32.42 22.4327 33.1625 22.4375Z" fill="#555555" stroke="white" stroke-width="2.66667" stroke-linejoin="round"/>
<path d="M10.625 9.70833H27.2917" stroke="white" stroke-width="2.66667" stroke-linecap="round"/>
</mask>
<g mask="url(#mask0_1013_223)">
<path d="M-5 -4H45V43H-5V-4Z" fill="#14AE5C"/>
</g>
</svg>
