<svg width="127" height="63" viewBox="0 0 127 63" fill="none" xmlns="http://www.w3.org/2000/svg">
<rect y="22" width="127" height="40" fill="white"/>
<path d="M6.07943 62.0793C4.19392 62.0793 3.25117 61.5859 3.25117 60.5991V30.5191C3.25117 30.0081 3.48025 29.6293 3.93841 29.3826C4.39657 29.1182 5.11024 28.9861 6.07943 28.9861H8.56406C10.0619 28.9861 11.0399 29.4178 11.498 30.2813L19.4013 44.3168L19.7978 45.004L20.1943 44.1846L28.1504 30.2813C28.6262 29.4178 29.613 28.9861 31.1108 28.9861H33.569C35.4545 28.9861 36.3973 29.4971 36.3973 30.5191V60.5991C36.3973 61.5859 35.4545 62.0793 33.569 62.0793H32.1945C30.309 62.0793 29.3663 61.5859 29.3663 60.5991V41.1185L29.1812 41.0656L22.3617 53.2509C21.9564 53.85 21.3309 54.1496 20.485 54.1496H19.137C18.6964 54.1496 18.3264 54.0791 18.0268 53.9382C17.7273 53.7796 17.4717 53.5505 17.2603 53.2509L10.4143 41.0656L10.2293 41.1185V60.5991C10.2293 61.5859 9.29536 62.0793 7.42747 62.0793H6.07943ZM53.8426 62.3965C49.7191 62.3965 46.6442 61.2951 44.6177 59.0924C42.5912 56.8721 41.578 53.7972 41.578 49.8676C41.578 45.4446 42.5912 42.2022 44.6177 40.1405C46.6442 38.0788 49.4372 37.0479 52.9967 37.0479C55.358 37.0479 57.2876 37.5854 58.7854 38.6603C60.3009 39.7352 61.4022 41.1802 62.0894 42.9952C62.7943 44.8102 63.1467 46.8631 63.1467 49.1539C63.1467 49.4182 62.9881 49.7707 62.671 50.2112C62.3714 50.6517 62.0278 51.0482 61.6401 51.4007C61.2524 51.7531 60.9529 51.9293 60.7414 51.9293H48.7676C48.9262 53.7267 49.4548 55.0043 50.3535 55.762C51.2698 56.5021 52.5386 56.8721 54.1598 56.8721C55.0408 56.8721 55.8338 56.7752 56.5387 56.5814C57.2612 56.3699 58.0277 56.0968 58.8383 55.762C59.3317 55.5329 59.6665 55.4184 59.8427 55.4184C60.1599 55.4184 60.5035 55.6474 60.8736 56.1056C61.2612 56.5461 61.5872 57.0572 61.8516 57.6387C62.1335 58.2202 62.2745 58.6695 62.2745 58.9867C62.2745 59.7092 61.7811 60.326 60.7943 60.837C59.8251 61.348 58.6709 61.7357 57.3316 62C56.01 62.2643 54.847 62.3965 53.8426 62.3965ZM56.3801 47.3036C56.3801 45.8587 56.0981 44.7045 55.5342 43.841C54.9704 42.9599 54.1245 42.5194 52.9967 42.5194C50.6707 42.5194 49.261 44.1141 48.7676 47.3036H56.3801ZM75.7549 62.3965C74.0457 62.3965 72.5214 61.9031 71.1822 60.9163C69.8605 59.9118 68.8209 58.4581 68.0631 56.5549C67.323 54.6342 66.953 52.3434 66.953 49.6826C66.953 47.1274 67.3407 44.8983 68.116 42.9952C68.8914 41.0921 70.0191 39.6295 71.4993 38.6074C72.9972 37.5678 74.7858 37.0479 76.8651 37.0479C78.733 37.0479 80.3277 37.5325 81.6493 38.5017V28.0874C81.6493 27.0653 82.5921 26.5543 84.4776 26.5543H85.7992C86.7684 26.5543 87.4733 26.6865 87.9138 26.9508C88.372 27.1975 88.601 27.5763 88.601 28.0874V53.7003C88.601 55.1628 88.6363 56.2994 88.7068 57.11C88.7949 57.9206 88.9094 58.7224 89.0504 59.5154C89.1385 59.9911 89.1825 60.326 89.1825 60.5198C89.1825 60.8722 88.8477 61.163 88.1781 61.3921C87.5261 61.6211 86.7772 61.7885 85.9314 61.8943C85.1032 62 84.4335 62.0529 83.9225 62.0529C83.3763 62.0529 82.9886 61.8414 82.7595 61.4185C82.548 60.9956 82.3542 60.3788 82.178 59.5682L82.0194 58.8546C81.4555 59.8942 80.6185 60.7489 79.5083 61.4185C78.3982 62.0705 77.147 62.3965 75.7549 62.3965ZM77.8167 56.6871C79.2969 56.6871 80.5744 55.762 81.6493 53.9117V43.4181C80.5392 42.819 79.4467 42.5194 78.3717 42.5194C75.4466 42.5194 73.984 44.9071 73.984 49.6826C73.984 54.3523 75.2615 56.6871 77.8167 56.6871ZM97.1651 33.3738C96.1783 33.3738 95.4558 33.2505 94.9977 33.0038C94.5571 32.7571 94.3368 32.3782 94.3368 31.8672V28.0874C94.3368 27.5763 94.5659 27.1975 95.0241 26.9508C95.4822 26.6865 96.1959 26.5543 97.1651 26.5543H98.4603C99.4295 26.5543 100.143 26.6865 100.601 26.9508C101.059 27.1975 101.289 27.5763 101.289 28.0874V31.8672C101.289 32.3782 101.059 32.7571 100.601 33.0038C100.161 33.2505 99.4471 33.3738 98.4603 33.3738H97.1651ZM97.1651 62.0793C95.2796 62.0793 94.3368 61.5859 94.3368 60.5991V38.8189C94.3368 38.3255 94.5659 37.9554 95.0241 37.7087C95.4822 37.462 96.1959 37.3387 97.1651 37.3387H98.4603C99.4295 37.3387 100.143 37.462 100.601 37.7087C101.059 37.9554 101.289 38.3255 101.289 38.8189V60.5991C101.289 61.5859 100.346 62.0793 98.4603 62.0793H97.1651ZM117.835 62.3965C113.835 62.3965 110.866 61.3656 108.927 59.3039C106.989 57.2246 106.02 54.0791 106.02 49.8676C106.02 45.6208 106.998 42.4225 108.954 40.2727C110.91 38.1228 113.958 37.0479 118.099 37.0479C119.28 37.0479 120.47 37.1801 121.668 37.4444C122.884 37.6911 123.888 38.0612 124.681 38.5546C125.492 39.0303 125.897 39.6118 125.897 40.2991C125.897 40.581 125.738 41.0216 125.421 41.6207C125.122 42.2198 124.769 42.7573 124.364 43.2331C123.976 43.6912 123.65 43.9203 123.386 43.9203C123.263 43.9203 122.989 43.797 122.567 43.5503C121.897 43.2331 121.263 42.9864 120.663 42.8102C120.064 42.6163 119.333 42.5194 118.47 42.5194C116.619 42.5194 115.271 43.1097 114.425 44.2904C113.58 45.4534 113.157 47.2508 113.157 49.6826C113.157 52.1319 113.553 53.947 114.346 55.1276C115.157 56.2906 116.443 56.8721 118.205 56.8721C119.174 56.8721 120.02 56.7752 120.743 56.5814C121.465 56.3699 122.152 56.1056 122.804 55.7884C122.928 55.7355 123.078 55.6739 123.254 55.6034C123.43 55.5329 123.562 55.4977 123.65 55.4977C123.967 55.4977 124.311 55.7267 124.681 56.1849C125.069 56.6254 125.395 57.1365 125.659 57.718C125.941 58.2995 126.082 58.7488 126.082 59.066C126.082 59.8766 125.553 60.5286 124.496 61.022C123.439 61.5154 122.258 61.8678 120.954 62.0793C119.65 62.2908 118.611 62.3965 117.835 62.3965Z" fill="#099E6C"/>
<path d="M95.0833 26.2922V25.7088C95.0833 25.2447 95.2677 24.7996 95.5959 24.4714C95.9241 24.1432 96.3692 23.9588 96.8333 23.9588H99.1666C99.6308 23.9588 100.076 24.1432 100.404 24.4714C100.732 24.7996 100.917 25.2447 100.917 25.7088V26.2922H102.083C102.547 26.2922 102.993 26.4765 103.321 26.8047C103.649 27.1329 103.833 27.578 103.833 28.0422V32.7088C103.833 33.173 103.649 33.6181 103.321 33.9463C102.993 34.2745 102.547 34.4588 102.083 34.4588H93.9166C93.4525 34.4588 93.0074 34.2745 92.6792 33.9463C92.351 33.6181 92.1666 33.173 92.1666 32.7088V28.0422C92.1666 27.578 92.351 27.1329 92.6792 26.8047C93.0074 26.4765 93.4525 26.2922 93.9166 26.2922H95.0833ZM98.5833 29.7922V28.6255H97.4166V29.7922H96.25V30.9588H97.4166V32.1255H98.5833V30.9588H99.75V29.7922H98.5833ZM96.25 26.2922H99.75V25.7088C99.75 25.5541 99.6885 25.4057 99.5791 25.2964C99.4697 25.187 99.3214 25.1255 99.1666 25.1255H96.8333C96.6786 25.1255 96.5302 25.187 96.4208 25.2964C96.3114 25.4057 96.25 25.5541 96.25 25.7088V26.2922Z" fill="#AFF4C6"/>
</svg>
