<svg width="43" height="43" viewBox="0 0 43 43" fill="none" xmlns="http://www.w3.org/2000/svg">
<path d="M32.0361 1.09597L30.1061 0.573975L29.0601 4.43397L30.9921 4.95797C32.6795 5.41474 34.2177 6.30588 35.4533 7.54254C36.6889 8.7792 37.5787 10.3182 38.0341 12.006L38.5541 13.936L42.4161 12.894L41.8961 10.964C41.2586 8.60074 40.0127 6.44593 38.2826 4.71445C36.5526 2.98297 34.3988 1.73533 32.0361 1.09597ZM30.2081 7.85197L28.2781 7.32997L27.2321 11.19L29.1641 11.714C29.6701 11.8511 30.1314 12.1184 30.502 12.4893C30.8726 12.8602 31.1394 13.3218 31.2761 13.828L31.7961 15.758L35.6581 14.718L35.1381 12.786C34.8193 11.6044 34.1964 10.527 33.3314 9.66121C32.4663 8.79547 31.3894 8.17165 30.2081 7.85197Z" fill="#AFF4C6"/>
<path d="M17.1601 1H5.78788e-05V3C-0.0130701 10.6993 2.2073 18.2372 6.39206 24.7C9.47614 29.4656 13.5345 33.5239 18.3001 36.608C24.7629 40.7928 32.3007 43.0131 40.0001 43H42.0001V25.84L28.6201 22.866L24.9001 26.586C21.496 24.3987 18.6025 21.5046 16.4161 18.1L20.1341 14.38L17.1601 1Z" fill="#AFF4C6"/>
</svg>
