<svg width="39" height="39" viewBox="0 0 39 39" fill="none" xmlns="http://www.w3.org/2000/svg">
<path d="M19.5 0.75C17.0377 0.75 14.5995 1.23498 12.3247 2.17726C10.0498 3.11953 7.98285 4.50065 6.24175 6.24175C2.72544 9.75805 0.75 14.5272 0.75 19.5C0.75 24.4728 2.72544 29.2419 6.24175 32.7583C7.98285 34.4994 10.0498 35.8805 12.3247 36.8227C14.5995 37.765 17.0377 38.25 19.5 38.25C24.4728 38.25 29.2419 36.2746 32.7583 32.7583C36.2746 29.2419 38.25 24.4728 38.25 19.5C38.25 17.0377 37.765 14.5995 36.8227 12.3247C35.8805 10.0498 34.4994 7.98285 32.7583 6.24175C31.0172 4.50065 28.9502 3.11953 26.6753 2.17726C24.4005 1.23498 21.9623 0.75 19.5 0.75ZM27.375 27.375L17.625 21.375V10.125H20.4375V19.875L28.875 24.9375L27.375 27.375Z" fill="#14AE5C"/>
</svg>
