<svg width="26" height="26" viewBox="0 0 26 26" fill="none" xmlns="http://www.w3.org/2000/svg">
<path d="M5.33334 7.33337H4.00001C3.29277 7.33337 2.61449 7.61433 2.11439 8.11442C1.61429 8.61452 1.33334 9.2928 1.33334 10V22C1.33334 22.7073 1.61429 23.3856 2.11439 23.8857C2.61449 24.3858 3.29277 24.6667 4.00001 24.6667H16C16.7073 24.6667 17.3855 24.3858 17.8856 23.8857C18.3857 23.3856 18.6667 22.7073 18.6667 22V20.6667" stroke="#AFF4C6" stroke-width="2.66667" stroke-linecap="round" stroke-linejoin="round"/>
<path d="M17.3333 4.66669L21.3333 8.66669M23.18 6.78002C23.7051 6.25489 24.0001 5.54266 24.0001 4.80002C24.0001 4.05738 23.7051 3.34515 23.18 2.82002C22.6549 2.29489 21.9426 1.99988 21.2 1.99988C20.4574 1.99988 19.7451 2.29489 19.22 2.82002L8 14V18H12L23.18 6.78002Z" stroke="#AFF4C6" stroke-width="2.66667" stroke-linecap="round" stroke-linejoin="round"/>
</svg>
