<svg width="37" height="44" viewBox="0 0 37 44" fill="none" xmlns="http://www.w3.org/2000/svg">
<path fill-rule="evenodd" clip-rule="evenodd" d="M17.8875 6.94063C18.0857 6.9403 18.2818 6.98132 18.4632 7.06106C18.6447 7.14081 18.8075 7.25752 18.9413 7.40375L20.3288 8.9225C20.5196 9.13023 20.6442 9.39011 20.6866 9.66895C20.7291 9.9478 20.6875 10.233 20.5672 10.4881C20.4469 10.7432 20.2533 10.9567 20.0111 11.1013C19.7689 11.2459 19.4892 11.3151 19.2075 11.3C18.5831 15.5113 15.2194 18.8844 10.9519 18.8844C8.57626 18.8844 6.45189 17.8175 4.95189 16.1525C4.82702 16.0138 4.73072 15.8519 4.6685 15.676C4.60628 15.5 4.57936 15.3136 4.58929 15.1272C4.59922 14.9409 4.64579 14.7583 4.72635 14.59C4.80691 14.4217 4.91987 14.2709 5.05876 14.1463C5.33953 13.8935 5.70917 13.7626 6.08644 13.7823C6.4637 13.802 6.8177 13.9706 7.07064 14.2513C8.08314 15.3763 9.45939 16.04 10.9519 16.04C13.47 16.04 15.7388 14.0863 16.32 11.2906C16.0609 11.2589 15.8156 11.1563 15.6111 10.9942C15.4065 10.8322 15.2506 10.6168 15.1605 10.3718C15.0703 10.1269 15.0495 9.86181 15.1003 9.60578C15.151 9.34976 15.2714 9.11268 15.4481 8.92063L16.8356 7.40375C16.9692 7.25775 17.1317 7.14117 17.3128 7.06144C17.4939 6.9817 17.6896 6.94056 17.8875 6.94063Z" fill="#14AE5C"/>
<path d="M10.5 0.875C6.23061 0.875 2.86874 4.24625 2.24061 8.45938C1.95983 8.44653 1.68153 8.51712 1.44081 8.66224C1.2001 8.80735 1.00774 9.02051 0.888012 9.27481C0.768282 9.52911 0.726538 9.81317 0.768044 10.0912C0.80955 10.3692 0.932448 10.6286 1.12124 10.8369L2.50874 12.3556C2.64226 12.5017 2.80474 12.6184 2.98585 12.6982C3.16695 12.7781 3.3627 12.8193 3.56061 12.8193C3.75853 12.8193 3.95427 12.7781 4.13538 12.6982C4.31648 12.6184 4.47897 12.5017 4.61249 12.3556L5.99999 10.8369C6.1762 10.6448 6.29611 10.4079 6.34656 10.1521C6.39701 9.89635 6.37605 9.63164 6.28599 9.38702C6.19592 9.14239 6.04023 8.92729 5.83598 8.76531C5.63174 8.60333 5.38683 8.50072 5.12811 8.46875C5.70936 5.67313 7.97811 3.7175 10.4962 3.7175C12.0975 3.7175 13.5694 4.48625 14.5987 5.76688C14.8353 6.06139 15.1791 6.24993 15.5546 6.29107C15.9301 6.33221 16.3065 6.22257 16.6012 5.98625C16.7473 5.86974 16.8689 5.72555 16.9591 5.56194C17.0493 5.39832 17.1063 5.21851 17.1269 5.03282C17.1474 4.84712 17.1311 4.65919 17.0789 4.47981C17.0267 4.30043 16.9395 4.13313 16.8225 3.9875C15.3112 2.105 13.0556 0.875 10.5 0.875Z" fill="#14AE5C"/>
<path opacity="0.4" d="M36.375 21.2544V28.8369C36.375 35.9844 36.375 39.56 34.1493 41.78C31.9237 44.0019 28.3406 44.0019 21.1743 44.0019C14.0118 44.0019 10.4268 44.0019 8.20121 41.78C5.97559 39.56 5.97559 35.9863 5.97559 28.8369V25.5875C5.97559 25.085 5.97559 24.8338 6.02434 24.6256C6.10362 24.2772 6.27985 23.9584 6.53267 23.7059C6.78549 23.4534 7.10458 23.2776 7.45309 23.1988C7.66121 23.15 7.91434 23.15 8.41871 23.15C11.445 23.15 12.9562 23.15 14.2087 22.8669C16.3007 22.3933 18.2163 21.3381 19.7347 19.8231C21.2531 18.308 22.3124 16.3947 22.7906 14.3038C23.0756 13.0569 23.0756 11.5475 23.0756 8.53438C23.0756 8.03375 23.0756 7.78438 23.1243 7.5725C23.2893 6.86188 23.8706 6.29375 24.5868 6.14375C24.7987 6.10063 25.0406 6.10625 25.5243 6.11563C29.8968 6.20375 32.4281 6.59188 34.1493 8.30938C36.375 10.5313 36.375 14.1013 36.375 21.2544Z" fill="#14AE5C"/>
<path d="M14.0512 38.3131C14.0522 37.9358 14.2028 37.5744 14.4699 37.3079C14.737 37.0415 15.0989 36.8919 15.4762 36.8919H26.8762C27.0705 36.8797 27.2652 36.9074 27.4484 36.9733C27.6316 37.0393 27.7993 37.142 27.9412 37.2753C28.0831 37.4085 28.1962 37.5695 28.2735 37.7481C28.3508 37.9268 28.3907 38.1194 28.3907 38.3141C28.3907 38.5087 28.3508 38.7013 28.2735 38.88C28.1962 39.0587 28.0831 39.2196 27.9412 39.3529C27.7993 39.4861 27.6316 39.5889 27.4484 39.6548C27.2652 39.7208 27.0705 39.7485 26.8762 39.7363H15.4762C15.0986 39.7363 14.7364 39.5864 14.4692 39.3195C14.2021 39.0527 14.0517 38.6907 14.0512 38.3131Z" fill="#14AE5C"/>
</svg>
